<svg width="657.9px" height="121.6px" xmlns="http://www.w3.org/2000/svg" viewBox="-78.96251220703124 14.199996948242188 657.9250244140625 121.60000610351562" style="background: rgba(110, 130, 195, 0.898)" preserveAspectRatio="xMidYMid"><defs><filter id="editing-hover" x="-100%" y="-100%" width="300%" height="300%"><feFlood flood-color="#13a365" result="flood"></feFlood><feComposite operator="in" in2="SourceAlpha" in="flood" result="shadow"></feComposite><feOffset dx="-1.3" dy="2.8" in="SourceGraphic" result="offset-1"></feOffset><feOffset dx="1.3" dy="-2.8" in="shadow" result="offset-2"></feOffset><feMerge><feMergeNode in="offset-2"></feMergeNode><feMergeNode in="offset-1"></feMergeNode></feMerge></filter></defs><g filter="url(#editing-hover)"><g transform="matrix(1.4,0,0,1.4,-60,140.4)"><path d="M 2.8 -40.5 L -11.1 -40.5 L -3 -82.7 L 11.1 -82.7 L 2.8 -40.5 Z M 58.6 -39.2 L 58.6 -39.2 L 58.6 -39.2 Q 50.8 -39.2 50.8 -45.2 L 50.8 -45.2 L 50.8 -45.2 Q 50.8 -47.8 52 -52.9 L 52 -52.9 L 52 -52.9 Q 53.1 -58 53.5 -60.1 L 53.5 -60.1 L 53.5 -60.1 Q 54.4 -64.7 54.4 -66.2 L 54.4 -66.2 L 54.4 -66.2 Q 54.4 -69.5 51.9 -69.5 L 51.9 -69.5 L 51.9 -69.5 Q 50.3 -69.5 48.8 -67.3 L 48.8 -67.3 L 48.8 -67.3 Q 47.2 -65.1 46.5 -60.6 L 46.5 -60.6 L 42.6 -40.5 L 30.1 -39.2 L 33.6 -56.6 L 33.6 -56.6 Q 34.1 -59.5 34.6 -62.7 L 34.6 -62.7 L 34.6 -62.7 Q 35.2 -66 35.2 -66.5 L 35.2 -66.5 L 35.2 -66.5 Q 35.2 -69.5 33 -69.5 L 33 -69.5 L 33 -69.5 Q 31.5 -69.5 29.9 -67.3 L 29.9 -67.3 L 29.9 -67.3 Q 28.3 -65.1 27.4 -60.6 L 27.4 -60.6 L 23.5 -40.5 L 10.9 -39.2 L 17.6 -73.1 L 28 -74.4 L 27 -67.9 L 27 -67.9 Q 28.6 -71.4 31.7 -72.9 L 31.7 -72.9 L 31.7 -72.9 Q 34.8 -74.4 39.6 -74.4 L 39.6 -74.4 L 39.6 -74.4 Q 42.3 -74.4 44.1 -73.1 L 44.1 -73.1 L 44.1 -73.1 Q 45.9 -71.7 46.5 -69.5 L 46.5 -69.5 L 46.5 -69.5 Q 47.6 -71.8 50.4 -73.1 L 50.4 -73.1 L 50.4 -73.1 Q 53.1 -74.4 56.6 -74.4 L 56.6 -74.4 L 56.6 -74.4 Q 60 -74.4 61.7 -73.7 L 61.7 -73.7 L 61.7 -73.7 Q 63.4 -72.9 64.4 -71.7 L 64.4 -71.7 L 64.4 -71.7 Q 66.1 -69.5 66.1 -65.4 L 66.1 -65.4 L 66.1 -65.4 Q 66.1 -61.3 64.4 -53 L 64.4 -53 L 64.4 -53 Q 63.5 -48.9 63.5 -47.4 L 63.5 -47.4 L 63.5 -47.4 Q 63.5 -45.9 64.4 -45 L 64.4 -45 L 64.4 -45 Q 65.2 -44.1 66.5 -43.9 L 66.5 -43.9 L 66.5 -43.9 Q 65.9 -41.8 63.7 -40.5 L 63.7 -40.5 L 63.7 -40.5 Q 61.5 -39.2 58.6 -39.2 Z M 74.2 -42.4 L 74.2 -42.4 L 74.2 -42.4 Q 72.7 -44.1 72 -46.7 L 72 -46.7 L 72 -46.7 Q 71.4 -49.3 71.4 -53.6 L 71.4 -53.6 L 71.4 -53.6 Q 71.4 -57.9 72.8 -61.8 L 72.8 -61.8 L 72.8 -61.8 Q 74.3 -65.7 77 -68.5 L 77 -68.5 L 77 -68.5 Q 82.5 -74.4 91.6 -74.4 L 91.6 -74.4 L 91.6 -74.4 Q 94.9 -74.4 97.2 -73.3 L 97.2 -73.3 L 108.2 -74.4 L 103.4 -49.4 L 103.4 -49.4 Q 103.2 -48.7 103.2 -47.3 L 103.2 -47.3 L 103.2 -47.3 Q 103.2 -45.9 104.1 -45 L 104.1 -45 L 104.1 -45 Q 105 -44.1 106.3 -43.9 L 106.3 -43.9 L 106.3 -43.9 Q 105.6 -41.8 103.3 -40.5 L 103.3 -40.5 L 103.3 -40.5 Q 100.9 -39.2 98.3 -39.2 L 98.3 -39.2 L 98.3 -39.2 Q 95.7 -39.2 93.9 -40.2 L 93.9 -40.2 L 93.9 -40.2 Q 92.2 -41.2 91.7 -42.8 L 91.7 -42.8 L 91.7 -42.8 Q 90.6 -41.2 88.5 -40.2 L 88.5 -40.2 L 88.5 -40.2 Q 86.3 -39.2 83.4 -39.2 L 83.4 -39.2 L 83.4 -39.2 Q 80.5 -39.2 78.1 -40 L 78.1 -40 L 78.1 -40 Q 75.7 -40.7 74.2 -42.4 Z M 87.7 -68.4 L 87.7 -68.4 L 87.7 -68.4 Q 87 -67.2 86.4 -65.3 L 86.4 -65.3 L 86.4 -65.3 Q 85.7 -63.3 84.7 -58.1 L 84.7 -58.1 L 84.7 -58.1 Q 83.6 -52.9 83.6 -49.2 L 83.6 -49.2 L 83.6 -49.2 Q 83.6 -45.5 84.2 -44.4 L 84.2 -44.4 L 84.2 -44.4 Q 84.8 -43.3 85.8 -43.3 L 85.8 -43.3 L 85.8 -43.3 Q 87.8 -43.3 89.3 -45.2 L 89.3 -45.2 L 89.3 -45.2 Q 90.8 -47.2 91.4 -50.7 L 91.4 -50.7 L 94.8 -69.4 L 94.8 -69.4 Q 93.5 -70.6 91.9 -70.6 L 91.9 -70.6 L 91.9 -70.6 Q 90.3 -70.6 89.4 -70 L 89.4 -70 L 89.4 -70 Q 88.5 -69.5 87.7 -68.4 Z M 115.9 -67.2 L 115.9 -67.2 L 115.9 -67.2 Q 118.1 -70.3 121.4 -72.3 L 121.4 -72.3 L 121.4 -72.3 Q 124.7 -74.4 128.7 -74.4 L 128.7 -74.4 L 128.7 -74.4 Q 132.8 -74.4 134.7 -73.1 L 134.7 -73.1 L 147.2 -74.4 L 142.9 -49.8 L 142.9 -49.8 Q 140.6 -37.3 135.9 -32.3 L 135.9 -32.3 L 135.9 -32.3 Q 131.3 -27.7 122.5 -27.7 L 122.5 -27.7 L 122.5 -27.7 Q 115.8 -27.7 112 -29.8 L 112 -29.8 L 112 -29.8 Q 108.1 -31.9 108.1 -35.4 L 108.1 -35.4 L 108.1 -35.4 Q 108.1 -38 110.1 -39.5 L 110.1 -39.5 L 110.1 -39.5 Q 112.1 -41.1 115.2 -41.1 L 115.2 -41.1 L 115.2 -41.1 Q 117.8 -41.1 119.9 -39.8 L 119.9 -39.8 L 119.9 -39.8 Q 121.1 -39.2 121.7 -38.3 L 121.7 -38.3 L 121.7 -38.3 Q 120.2 -37 120.2 -34.9 L 120.2 -34.9 L 120.2 -34.9 Q 120.2 -32.2 122.8 -32.2 L 122.8 -32.2 L 122.8 -32.2 Q 127.1 -32.2 129.5 -42.3 L 129.5 -42.3 L 129.5 -42.3 Q 130.2 -45 130.8 -47.8 L 130.8 -47.8 L 130.8 -47.8 Q 127.9 -44.3 121.4 -44.3 L 121.4 -44.3 L 121.4 -44.3 Q 116.8 -44.3 114.2 -46.4 L 114.2 -46.4 L 114.2 -46.4 Q 111.6 -48.6 111.6 -53.7 L 111.6 -53.7 L 111.6 -53.7 Q 111.6 -56.9 112.7 -60.5 L 112.7 -60.5 L 112.7 -60.5 Q 113.7 -64.2 115.9 -67.2 Z M 124.2 -53.5 L 124.2 -53.5 L 124.2 -53.5 Q 124.2 -49.2 126.5 -49.2 L 126.5 -49.2 L 126.5 -49.2 Q 128 -49.2 129.5 -50.8 L 129.5 -50.8 L 129.5 -50.8 Q 130.6 -52.2 131.1 -54.2 L 131.1 -54.2 L 134.4 -70.6 L 134.4 -70.6 Q 134 -70.7 133.7 -70.8 L 133.7 -70.8 L 133.7 -70.8 Q 133.1 -71.1 132.2 -71.1 L 132.2 -71.1 L 132.2 -71.1 Q 128.3 -71.1 126 -64.7 L 126 -64.7 L 126 -64.7 Q 124.2 -59.7 124.2 -53.5 Z M 175.6 -51.3 L 175.6 -51.3 L 175.6 -51.3 Q 177.2 -50.2 177.2 -47.8 L 177.2 -47.8 L 177.2 -47.8 Q 177.2 -45.4 176 -43.9 L 176 -43.9 L 176 -43.9 Q 174.8 -42.3 172.8 -41.3 L 172.8 -41.3 L 172.8 -41.3 Q 168.7 -39.2 164.3 -39.2 L 164.3 -39.2 L 164.3 -39.2 Q 159.9 -39.2 157.3 -40.2 L 157.3 -40.2 L 157.3 -40.2 Q 154.7 -41.1 153 -42.9 L 153 -42.9 L 153 -42.9 Q 149.6 -46.3 149.6 -52.5 L 149.6 -52.5 L 149.6 -52.5 Q 149.6 -62.2 154.8 -68.1 L 154.8 -68.1 L 154.8 -68.1 Q 160.5 -74.4 170.3 -74.4 L 170.3 -74.4 L 170.3 -74.4 Q 176.3 -74.4 179.3 -71.8 L 179.3 -71.8 L 179.3 -71.8 Q 181.6 -69.9 181.6 -66.8 L 181.6 -66.8 L 181.6 -66.8 Q 181.6 -55.5 162.1 -55.5 L 162.1 -55.5 L 162.1 -55.5 Q 161.9 -53.9 161.9 -52.4 L 161.9 -52.4 L 161.9 -52.4 Q 161.9 -49.5 163.2 -48.4 L 163.2 -48.4 L 163.2 -48.4 Q 164.5 -47.3 166.9 -47.3 L 166.9 -47.3 L 166.9 -47.3 Q 169.4 -47.3 172 -48.4 L 172 -48.4 L 172 -48.4 Q 174.5 -49.5 175.6 -51.3 Z M 162.6 -58.3 L 162.6 -58.3 L 162.6 -58.3 Q 167.1 -58.3 169.7 -61.1 L 169.7 -61.1 L 169.7 -61.1 Q 172.4 -63.8 172.4 -68.1 L 172.4 -68.1 L 172.4 -68.1 Q 172.4 -69.5 171.8 -70.3 L 171.8 -70.3 L 171.8 -70.3 Q 171.3 -71.1 170.2 -71.1 L 170.2 -71.1 L 170.2 -71.1 Q 169.1 -71.1 168.2 -70.7 L 168.2 -70.7 L 168.2 -70.7 Q 167.2 -70.3 166.3 -68.9 L 166.3 -68.9 L 166.3 -68.9 Q 163.9 -65.7 162.6 -58.3 Z M 202.9 -62.9 L 202.9 -62.9 L 202.9 -62.9 Q 203.8 -65.3 203.8 -67.4 L 203.8 -67.4 L 203.8 -67.4 Q 203.8 -71.1 200.7 -71.1 L 200.7 -71.1 L 200.7 -71.1 Q 199.1 -71.1 197.8 -69.7 L 197.8 -69.7 L 197.8 -69.7 Q 196.5 -68.3 196.5 -66.5 L 196.5 -66.5 L 196.5 -66.5 Q 196.5 -65.2 197.5 -64.2 L 197.5 -64.2 L 197.5 -64.2 Q 199 -62.7 202.8 -60.4 L 202.8 -60.4 L 202.8 -60.4 Q 206.5 -58.1 208 -56.3 L 208 -56.3 L 208 -56.3 Q 209.4 -54.4 209.4 -51.8 L 209.4 -51.8 L 209.4 -51.8 Q 209.4 -49.2 208.2 -46.8 L 208.2 -46.8 L 208.2 -46.8 Q 206.9 -44.4 204.7 -42.8 L 204.7 -42.8 L 204.7 -42.8 Q 199.9 -39.2 192.2 -39.2 L 192.2 -39.2 L 192.2 -39.2 Q 188 -39.2 184.8 -41.4 L 184.8 -41.4 L 184.8 -41.4 Q 181.6 -43.5 181.6 -46 L 181.6 -46 L 181.6 -46 Q 181.6 -48.5 183.5 -49.9 L 183.5 -49.9 L 183.5 -49.9 Q 185.3 -51.4 188 -51.4 L 188 -51.4 L 188 -51.4 Q 190.7 -51.4 192.3 -50.4 L 192.3 -50.4 L 192.3 -50.4 Q 191.5 -48.3 191.5 -46.9 L 191.5 -46.9 L 191.5 -46.9 Q 191.5 -42.7 195.1 -42.7 L 195.1 -42.7 L 195.1 -42.7 Q 196.6 -42.7 197.6 -43.6 L 197.6 -43.6 L 197.6 -43.6 Q 198.7 -44.6 198.7 -46.2 L 198.7 -46.2 L 198.7 -46.2 Q 198.7 -49.5 193.2 -53 L 193.2 -53 L 193.2 -53 Q 188.7 -55.9 187.7 -57.1 L 187.7 -57.1 L 187.7 -57.1 Q 185.9 -59.1 185.9 -61.7 L 185.9 -61.7 L 185.9 -61.7 Q 185.9 -64.2 187.2 -66.7 L 187.2 -66.7 L 187.2 -66.7 Q 188.4 -69.1 190.6 -70.8 L 190.6 -70.8 L 190.6 -70.8 Q 195.3 -74.4 203.4 -74.4 L 203.4 -74.4 L 203.4 -74.4 Q 207.6 -74.4 210 -72.7 L 210 -72.7 L 210 -72.7 Q 212.5 -71.1 212.5 -68.3 L 212.5 -68.3 L 212.5 -68.3 Q 212.5 -65.4 210.8 -63.8 L 210.8 -63.8 L 210.8 -63.8 Q 209.1 -62.2 206 -62.2 L 206 -62.2 L 206 -62.2 Q 203.9 -62.2 202.9 -62.9 Z M 254 -61.1 L 266.9 -62.2 L 266.9 -62.2 Q 262.3 -52.1 262.3 -40.4 L 262.3 -40.4 L 262.3 -40.4 Q 260.6 -39.2 258 -39.2 L 258 -39.2 L 258 -39.2 Q 255.5 -39.2 253.9 -40.4 L 253.9 -40.4 L 253.9 -40.4 Q 252.3 -41.6 252 -42.8 L 252 -42.8 L 252 -42.8 Q 250.4 -41.1 247.8 -40.2 L 247.8 -40.2 L 247.8 -40.2 Q 245.2 -39.2 242.4 -39.2 L 242.4 -39.2 L 242.4 -39.2 Q 239.7 -39.2 237.3 -40.1 L 237.3 -40.1 L 237.3 -40.1 Q 234.9 -41 233 -43 L 233 -43 L 233 -43 Q 228.9 -47.3 228.9 -55.6 L 228.9 -55.6 L 228.9 -55.6 Q 228.9 -68.4 235.8 -76.1 L 235.8 -76.1 L 235.8 -76.1 Q 242.8 -84 255.3 -84 L 255.3 -84 L 255.3 -84 Q 264 -84 267 -79.5 L 267 -79.5 L 267 -79.5 Q 268 -78.1 268 -76.4 L 268 -76.4 L 268 -76.4 Q 268 -74.7 267.2 -73.3 L 267.2 -73.3 L 267.2 -73.3 Q 266.5 -71.8 265.4 -70.7 L 265.4 -70.7 L 265.4 -70.7 Q 262.6 -68.1 259.2 -68.1 L 259.2 -68.1 L 259.2 -68.1 Q 257.9 -68.1 256.6 -68.6 L 256.6 -68.6 L 256.6 -68.6 Q 256.8 -70.5 256.8 -72.7 L 256.8 -72.7 L 256.8 -72.7 Q 256.8 -75 256.7 -76 L 256.7 -76 L 256.7 -76 Q 256.5 -77 256.1 -77.9 L 256.1 -77.9 L 256.1 -77.9 Q 255.3 -79.6 253.5 -79.6 L 253.5 -79.6 L 253.5 -79.6 Q 251.7 -79.6 249.6 -77.6 L 249.6 -77.6 L 249.6 -77.6 Q 247.6 -75.7 246 -72.5 L 246 -72.5 L 246 -72.5 Q 242.5 -65.3 242.5 -56.7 L 242.5 -56.7 L 242.5 -56.7 Q 242.5 -52.7 244 -49.9 L 244 -49.9 L 244 -49.9 Q 245.7 -46.8 248.7 -46.8 L 248.7 -46.8 L 248.7 -46.8 Q 249.7 -46.8 250.6 -47.3 L 250.6 -47.3 L 250.6 -47.3 Q 251.5 -47.8 251.9 -48.2 L 251.9 -48.2 L 254 -61.1 Z M 272.8 -42.4 L 272.8 -42.4 L 272.8 -42.4 Q 271.3 -44.1 270.6 -46.7 L 270.6 -46.7 L 270.6 -46.7 Q 270 -49.3 270 -53.6 L 270 -53.6 L 270 -53.6 Q 270 -57.9 271.4 -61.8 L 271.4 -61.8 L 271.4 -61.8 Q 272.9 -65.7 275.6 -68.5 L 275.6 -68.5 L 275.6 -68.5 Q 281.1 -74.4 290.2 -74.4 L 290.2 -74.4 L 290.2 -74.4 Q 293.5 -74.4 295.8 -73.3 L 295.8 -73.3 L 306.8 -74.4 L 302 -49.4 L 302 -49.4 Q 301.8 -48.7 301.8 -47.3 L 301.8 -47.3 L 301.8 -47.3 Q 301.8 -45.9 302.7 -45 L 302.7 -45 L 302.7 -45 Q 303.6 -44.1 304.8 -43.9 L 304.8 -43.9 L 304.8 -43.9 Q 304.2 -41.8 301.9 -40.5 L 301.9 -40.5 L 301.9 -40.5 Q 299.5 -39.2 296.9 -39.2 L 296.9 -39.2 L 296.9 -39.2 Q 294.3 -39.2 292.5 -40.2 L 292.5 -40.2 L 292.5 -40.2 Q 290.8 -41.2 290.3 -42.8 L 290.3 -42.8 L 290.3 -42.8 Q 289.2 -41.2 287.1 -40.2 L 287.1 -40.2 L 287.1 -40.2 Q 284.9 -39.2 282 -39.2 L 282 -39.2 L 282 -39.2 Q 279.1 -39.2 276.7 -40 L 276.7 -40 L 276.7 -40 Q 274.3 -40.7 272.8 -42.4 Z M 286.3 -68.4 L 286.3 -68.4 L 286.3 -68.4 Q 285.6 -67.2 284.9 -65.3 L 284.9 -65.3 L 284.9 -65.3 Q 284.3 -63.3 283.2 -58.1 L 283.2 -58.1 L 283.2 -58.1 Q 282.2 -52.9 282.2 -49.2 L 282.2 -49.2 L 282.2 -49.2 Q 282.2 -45.5 282.8 -44.4 L 282.8 -44.4 L 282.8 -44.4 Q 283.3 -43.3 284.4 -43.3 L 284.4 -43.3 L 284.4 -43.3 Q 286.4 -43.3 287.9 -45.2 L 287.9 -45.2 L 287.9 -45.2 Q 289.4 -47.2 290 -50.7 L 290 -50.7 L 293.4 -69.4 L 293.4 -69.4 Q 292 -70.6 290.5 -70.6 L 290.5 -70.6 L 290.5 -70.6 Q 288.9 -70.6 288 -70 L 288 -70 L 288 -70 Q 287.1 -69.5 286.3 -68.4 Z M 325.5 -44 L 325.5 -44 L 325.5 -44 Q 323.5 -39.2 317.2 -39.2 L 317.2 -39.2 L 317.2 -39.2 Q 314 -39.2 312 -41.4 L 312 -41.4 L 312 -41.4 Q 310.3 -43.3 310.3 -45.4 L 310.3 -45.4 L 310.3 -45.4 Q 310.3 -50.2 312.5 -60.7 L 312.5 -60.7 L 317.2 -85.3 L 330.2 -86.6 L 324 -54.2 L 324 -54.2 Q 322.9 -49.4 322.9 -47.8 L 322.9 -47.8 L 322.9 -47.8 Q 322.9 -44.1 325.5 -44 Z M 346.3 -44 L 346.3 -44 L 346.3 -44 Q 344.3 -39.2 337.9 -39.2 L 337.9 -39.2 L 337.9 -39.2 Q 334.7 -39.2 332.7 -41.4 L 332.7 -41.4 L 332.7 -41.4 Q 331 -43.3 331 -45.4 L 331 -45.4 L 331 -45.4 Q 331 -50.2 333.3 -60.7 L 333.3 -60.7 L 337.9 -85.3 L 350.9 -86.6 L 344.7 -54.2 L 344.7 -54.2 Q 343.6 -49.4 343.6 -47.8 L 343.6 -47.8 L 343.6 -47.8 Q 343.6 -44.1 346.3 -44 Z M 377.6 -51.3 L 377.6 -51.3 L 377.6 -51.3 Q 379.2 -50.2 379.2 -47.8 L 379.2 -47.8 L 379.2 -47.8 Q 379.2 -45.4 378 -43.9 L 378 -43.9 L 378 -43.9 Q 376.8 -42.3 374.8 -41.3 L 374.8 -41.3 L 374.8 -41.3 Q 370.7 -39.2 366.3 -39.2 L 366.3 -39.2 L 366.3 -39.2 Q 361.9 -39.2 359.3 -40.2 L 359.3 -40.2 L 359.3 -40.2 Q 356.7 -41.1 355 -42.9 L 355 -42.9 L 355 -42.9 Q 351.6 -46.3 351.6 -52.5 L 351.6 -52.5 L 351.6 -52.5 Q 351.6 -62.2 356.8 -68.1 L 356.8 -68.1 L 356.8 -68.1 Q 362.4 -74.4 372.2 -74.4 L 372.2 -74.4 L 372.2 -74.4 Q 378.3 -74.4 381.3 -71.8 L 381.3 -71.8 L 381.3 -71.8 Q 383.6 -69.9 383.6 -66.8 L 383.6 -66.8 L 383.6 -66.8 Q 383.6 -55.5 364.1 -55.5 L 364.1 -55.5 L 364.1 -55.5 Q 363.9 -53.9 363.9 -52.4 L 363.9 -52.4 L 363.9 -52.4 Q 363.9 -49.5 365.2 -48.4 L 365.2 -48.4 L 365.2 -48.4 Q 366.5 -47.3 368.9 -47.3 L 368.9 -47.3 L 368.9 -47.3 Q 371.3 -47.3 373.9 -48.4 L 373.9 -48.4 L 373.9 -48.4 Q 376.5 -49.5 377.6 -51.3 Z M 364.6 -58.3 L 364.6 -58.3 L 364.6 -58.3 Q 369.1 -58.3 371.7 -61.1 L 371.7 -61.1 L 371.7 -61.1 Q 374.4 -63.8 374.4 -68.1 L 374.4 -68.1 L 374.4 -68.1 Q 374.4 -69.5 373.8 -70.3 L 373.8 -70.3 L 373.8 -70.3 Q 373.3 -71.1 372.2 -71.1 L 372.2 -71.1 L 372.2 -71.1 Q 371.1 -71.1 370.2 -70.7 L 370.2 -70.7 L 370.2 -70.7 Q 369.2 -70.3 368.3 -68.9 L 368.3 -68.9 L 368.3 -68.9 Q 365.9 -65.7 364.6 -58.3 Z M 405.8 -58.5 L 405.8 -58.5 L 405.8 -58.5 Q 408.1 -62.6 408.1 -66.7 L 408.1 -66.7 L 408.1 -66.7 Q 408.1 -69.5 406.1 -69.5 L 406.1 -69.5 L 406.1 -69.5 Q 404.6 -69.5 403 -66.8 L 403 -66.8 L 403 -66.8 Q 401.3 -64.2 400.8 -60.8 L 400.8 -60.8 L 397.5 -40.5 L 384.2 -39.2 L 390.7 -73.1 L 401.3 -74.4 L 400.1 -67.9 L 400.1 -67.9 Q 403.3 -74.4 410.3 -74.4 L 410.3 -74.4 L 410.3 -74.4 Q 414 -74.4 416 -72.5 L 416 -72.5 L 416 -72.5 Q 418.1 -70.6 418.1 -66.6 L 418.1 -66.6 L 418.1 -66.6 Q 418.1 -62.7 415.5 -60.2 L 415.5 -60.2 L 415.5 -60.2 Q 412.9 -57.7 408.5 -57.7 L 408.5 -57.7 L 408.5 -57.7 Q 406.5 -57.7 405.8 -58.5 Z M 439.4 -47.7 L 439.4 -47.7 L 439.4 -47.7 Q 436.1 -44.3 430 -44.3 L 430 -44.3 L 430 -44.3 Q 422.4 -44.3 420.8 -49.8 L 420.8 -49.8 L 420.8 -49.8 Q 420.3 -51.5 420.3 -53.3 L 420.3 -53.3 L 420.3 -53.3 Q 420.3 -55.2 420.7 -57.1 L 420.7 -57.1 L 423.7 -73.1 L 436.7 -74.4 L 433.2 -55.8 L 433.2 -55.8 Q 433 -54.9 432.8 -54 L 432.8 -54 L 432.8 -54 Q 432.7 -53.1 432.7 -52.2 L 432.7 -52.2 L 432.7 -52.2 Q 432.7 -51.3 433 -50.7 L 433 -50.7 L 433 -50.7 Q 433.3 -50.1 433.7 -49.7 L 433.7 -49.7 L 433.7 -49.7 Q 434.5 -49.2 435.9 -49.2 L 435.9 -49.2 L 435.9 -49.2 Q 437.3 -49.2 438.4 -50.8 L 438.4 -50.8 L 438.4 -50.8 Q 439.6 -52.5 440.2 -55.4 L 440.2 -55.4 L 443.7 -73.1 L 456.3 -74.4 L 451.5 -49.2 L 451.5 -49.2 Q 449.2 -37 444.3 -32.1 L 444.3 -32.1 L 444.3 -32.1 Q 441.8 -29.6 438.6 -28.6 L 438.6 -28.6 L 438.6 -28.6 Q 435.3 -27.6 431.2 -27.6 L 431.2 -27.6 L 431.2 -27.6 Q 424.5 -27.6 420.6 -29.7 L 420.6 -29.7 L 420.6 -29.7 Q 416.8 -31.8 416.8 -35.4 L 416.8 -35.4 L 416.8 -35.4 Q 416.8 -38 418.8 -39.5 L 418.8 -39.5 L 418.8 -39.5 Q 420.8 -41 423.8 -41 L 423.8 -41 L 423.8 -41 Q 426.5 -41 428.6 -39.8 L 428.6 -39.8 L 428.6 -39.8 Q 429.8 -39.1 430.4 -38.2 L 430.4 -38.2 L 430.4 -38.2 Q 428.9 -37 428.9 -34.8 L 428.9 -34.8 L 428.9 -34.8 Q 428.9 -32 431.4 -32 L 431.4 -32 L 431.4 -32 Q 435.7 -32 438.1 -41.8 L 438.1 -41.8 L 438.1 -41.8 Q 438.8 -44.6 439.4 -47.7 Z" fill="#0a7142"></path></g></g><style>text {
  font-size: 64px;
  font-family: Arial Black;
  dominant-baseline: central;
  text-anchor: middle;
}</style></svg>